<?xml version="1.0" standalone="no"?>
<!DOCTYPE svg PUBLIC "-//W3C//DTD SVG 20010904//EN"
 "http://www.w3.org/TR/2001/REC-SVG-20010904/DTD/svg10.dtd">
<svg version="1.0" xmlns="http://www.w3.org/2000/svg"
 width="1024.000000pt" height="1024.000000pt" viewBox="0 0 1024.000000 1024.000000"
 preserveAspectRatio="xMidYMid meet">
<metadata>
Created by potrace 1.14, written by Peter Selinger 2001-2017
</metadata>
<g transform="translate(0.000000,1024.000000) scale(0.100000,-0.100000)"
fill="#000000" stroke="none">
<path d="M4929 8126 c-4 -4 -31 -11 -60 -16 -113 -20 -188 -40 -314 -83 -144
-50 -238 -88 -243 -99 -2 -5 -9 -8 -15 -8 -19 0 -172 -95 -257 -160 -215 -163
-377 -356 -485 -575 -65 -133 -136 -334 -154 -439 -7 -36 -11 -230 -11 -478
l0 -418 -38 0 c-52 0 -135 -25 -205 -63 -106 -56 -209 -192 -253 -337 -24 -77
-29 -262 -9 -358 19 -94 29 -122 88 -242 59 -119 177 -237 297 -298 47 -23 90
-43 95 -42 6 0 9 -84 7 -237 -3 -248 5 -322 53 -498 10 -33 19 -75 22 -92 6
-38 18 -42 34 -11 12 21 13 20 30 -30 60 -176 244 -441 431 -617 129 -123 231
-195 413 -291 147 -77 292 -128 470 -165 147 -30 154 -31 360 -26 216 5 263
13 435 65 297 91 562 254 781 479 101 105 120 128 215 261 61 86 129 215 149
287 l17 59 19 -24 c17 -24 19 -24 19 -5 0 12 4 25 9 30 11 11 54 203 72 318
12 81 8 444 -6 479 -5 12 -1 20 11 24 145 46 280 150 370 285 139 210 165 549
57 764 -31 64 -95 147 -136 178 -74 56 -204 107 -274 107 l-43 0 0 413 c0 463
-6 523 -67 707 -71 213 -188 415 -332 573 -58 64 -104 108 -201 191 -41 35
-251 169 -310 198 -157 77 -335 135 -520 170 -105 19 -508 38 -521 24z m421
-231 c153 -22 350 -74 420 -111 14 -7 59 -28 101 -47 195 -88 446 -308 597
-524 70 -101 159 -323 181 -453 10 -64 14 -392 12 -1114 l-1 -359 -51 69 c-28
38 -53 71 -55 73 -2 2 -6 -5 -10 -15 -10 -30 -34 -87 -45 -108 -42 -76 -55
-96 -80 -131 -36 -49 -141 -139 -181 -156 -27 -11 -29 -16 -23 -43 8 -37 19
-433 12 -426 -3 3 -33 47 -67 97 -70 104 -178 212 -291 289 -79 55 -228 134
-251 134 -26 0 -28 12 -7 41 17 24 19 41 17 126 l-3 98 -72 3 -73 3 0 -29 c0
-40 -37 -91 -93 -129 -61 -41 -102 -53 -199 -60 -213 -15 -407 107 -359 227
l10 25 0 -27 c1 -24 5 -28 31 -28 20 0 30 5 30 15 0 8 9 24 20 35 l20 20 1
-42 c2 -31 3 -35 5 -13 2 17 9 55 16 85 7 33 11 112 9 195 l-3 140 45 31 c71
50 103 135 75 201 -7 17 -11 69 -9 133 2 91 -1 111 -20 150 -32 67 -90 101
-126 75 -16 -12 -16 -18 -5 -59 27 -101 8 -187 -51 -230 -22 -16 -43 -21 -90
-20 -68 0 -151 35 -316 134 -141 83 -220 112 -313 112 -43 0 -84 -5 -91 -10
-7 -5 -23 -12 -36 -15 -23 -6 -23 -4 -19 49 6 76 40 109 131 128 l27 6 0 251
c0 253 16 414 54 554 17 63 74 184 120 253 19 28 32 52 29 52 -17 0 -176 -87
-223 -123 -156 -116 -314 -331 -359 -487 -7 -25 -17 -54 -21 -65 -5 -11 -11
-42 -15 -70 -11 -98 -17 -125 -26 -125 -5 0 -9 9 -9 20 0 11 -7 20 -15 20 -14
0 -31 60 -28 105 1 19 0 19 -13 0 -19 -25 -18 -21 11 78 112 386 457 735 895
905 80 31 283 83 359 92 109 12 320 10 421 -5z m-1680 -1106 c0 -5 -4 -7 -10
-4 -5 3 -10 1 -10 -6 0 -7 -3 -10 -6 -6 -8 7 4 27 17 27 5 0 9 -5 9 -11z m-10
-39 c0 -5 -4 -10 -10 -10 -5 0 -10 5 -10 10 0 6 5 10 10 10 6 0 10 -4 10 -10z
m-28 -747 c-1 -390 -4 -712 -6 -718 -7 -16 -7 1360 0 1394 4 17 7 31 8 31 0 0
0 -318 -2 -707z m306 197 c-7 -10 -14 -17 -17 -15 -4 4 18 35 25 35 2 0 -1 -9
-8 -20z m-37 -53 c-10 -9 -11 -8 -5 6 3 10 9 15 12 12 3 -3 0 -11 -7 -18z
m239 -166 c-19 -10 -127 -25 -118 -16 4 4 31 11 60 15 73 10 75 10 58 1z m-30
-30 c0 -5 -7 -12 -16 -15 -14 -5 -15 -4 -4 9 14 17 20 19 20 6z m-145 -11 c-3
-5 -12 -10 -18 -10 -7 0 -6 4 3 10 19 12 23 12 15 0z m381 -84 c3 -136 205
-172 260 -47 l17 39 33 -14 c19 -8 39 -13 46 -12 18 4 11 -39 -12 -78 -21 -33
-91 -87 -136 -105 -122 -47 -252 -23 -328 61 -33 37 -53 93 -44 122 4 11 127
66 153 67 6 1 10 -14 11 -33z m-944 -321 l3 -106 -41 7 c-83 12 -158 -29 -190
-104 -18 -44 -18 -153 0 -197 12 -27 12 -35 3 -35 -7 0 -14 8 -15 18 -12 110
-19 163 -21 144 -1 -21 -3 -22 -16 -9 -8 8 -18 34 -21 58 -10 62 -22 26 -25
-76 l-3 -80 -4 65 c-4 77 6 153 19 145 5 -3 6 1 3 9 -9 22 38 117 82 165 51
58 130 97 201 100 21 1 22 -3 25 -104z m3603 79 c128 -53 213 -221 202 -399
-7 -116 -12 -123 -52 -79 l-33 36 -7 -31 c-3 -17 -11 -33 -15 -36 -5 -3 -4 8
1 25 16 45 7 178 -15 223 -30 60 -69 82 -148 82 l-68 0 0 35 c0 19 -3 66 -7
104 l-6 69 57 -7 c32 -4 73 -14 91 -22z m-2684 -193 c29 -13 72 -21 122 -23
42 -2 77 -5 77 -7 0 -2 -7 -9 -17 -16 -19 -14 -11 -30 26 -50 27 -14 31 -12
97 31 38 26 90 66 115 91 l46 44 6 -38 c4 -21 7 -55 7 -75 l0 -38 -70 0 -70 0
0 -103 c0 -79 4 -108 16 -126 14 -19 14 -25 3 -32 -8 -5 -19 -9 -25 -9 -24 0
-132 -55 -210 -106 -44 -29 -113 -86 -153 -125 l-72 -72 1 254 c1 140 -2 303
-6 363 l-7 109 35 -26 c19 -15 54 -35 79 -46z m-638 -41 c-3 -12 -8 -19 -11
-16 -5 6 5 36 12 36 2 0 2 -9 -1 -20z m-30 -40 c-3 -12 -8 -19 -11 -16 -5 6 5
36 12 36 2 0 2 -9 -1 -20z m207 -147 c0 -10 -21 10 -41 40 l-21 32 31 -34 c17
-18 31 -36 31 -38z m-469 -60 c13 -16 12 -17 -3 -4 -10 7 -18 15 -18 17 0 8 8
3 21 -13z m3193 -35 c101 -221 176 -579 176 -841 l0 -49 -36 44 c-38 46 -90
97 -82 82 63 -134 80 -202 81 -314 0 -150 -61 -325 -160 -458 -42 -57 -53 -61
-27 -10 9 18 20 47 24 63 58 241 60 249 60 421 0 134 -4 189 -20 264 -35 161
-34 150 -15 150 10 0 33 -11 52 -26 l33 -25 0 51 c0 38 -52 325 -74 405 -16
60 -31 109 -48 153 -20 53 -20 53 -41 35 -22 -18 -22 -18 -5 2 9 11 22 39 29
63 7 23 16 42 20 42 5 0 19 -24 33 -52z m-3474 -3 c10 -12 10 -15 -2 -15 -8 0
-15 7 -15 15 0 8 1 15 2 15 2 0 8 -7 15 -15z m158 -94 c18 -18 31 -35 28 -38
-3 -3 -20 10 -38 28 -18 18 -39 32 -45 31 -7 -2 -10 3 -7 12 3 8 1 17 -5 21
-6 3 -11 13 -11 22 0 10 8 6 22 -13 12 -16 37 -44 56 -63z m723 62 c13 -16 12
-17 -3 -4 -17 13 -22 21 -14 21 2 0 10 -8 17 -17z m-871 -14 c0 -6 -4 -7 -10
-4 -5 3 -10 11 -10 16 0 6 5 7 10 4 6 -3 10 -11 10 -16z m959 -57 c0 -14 -2
-14 -6 -2 -4 8 -13 21 -22 28 -14 11 -13 11 7 2 12 -6 22 -18 21 -28z m-879
-87 c0 -12 -20 6 -31 28 l-11 22 21 -22 c11 -12 21 -25 21 -28z m2390 -7 c52
-17 125 -46 161 -64 78 -39 196 -131 267 -209 102 -112 202 -315 202 -412 l0
-47 -34 71 c-59 122 -134 223 -265 353 -141 140 -241 215 -393 295 -116 61
-100 65 62 13z m-1533 -10 c-3 -7 -5 -2 -5 12 0 14 2 19 5 13 2 -7 2 -19 0
-25z m3033 9 c0 -2 -15 -16 -32 -33 l-33 -29 29 33 c28 30 36 37 36 29z
m-3826 -54 c8 -19 2 -16 -25 13 -23 25 -23 26 -2 13 13 -7 25 -19 27 -26z
m133 0 c-3 -10 -5 -4 -5 12 0 17 2 24 5 18 2 -7 2 -21 0 -30z m656 12 c-3 -9
-8 -14 -10 -11 -3 3 -2 9 2 15 9 16 15 13 8 -4z m-6 -197 c-2 -35 -3 -9 -3 57
0 66 1 94 3 63 2 -32 2 -86 0 -120z m2933 137 c0 -2 -10 -9 -22 -15 -22 -11
-22 -10 -4 4 21 17 26 19 26 11z m-2933 -227 c-3 -8 -6 -5 -6 6 -1 11 2 17 5
13 3 -3 4 -12 1 -19z m23 -8 c-6 -11 -13 -20 -16 -20 -2 0 0 9 6 20 6 11 13
20 16 20 2 0 0 -9 -6 -20z m1220 -105 c88 -21 111 -30 214 -88 96 -54 266
-210 266 -244 0 -3 7 -14 15 -23 9 -9 21 -48 29 -87 23 -120 -18 -210 -107
-234 -84 -22 -225 21 -327 102 -44 35 -130 135 -130 152 0 4 52 7 115 7 63 0
115 4 115 9 0 15 -93 102 -135 126 -22 13 -74 30 -115 39 -73 15 -180 18 -180
4 0 -3 -15 -10 -32 -13 -18 -4 -51 -19 -73 -34 -63 -42 -73 -45 -36 -12 19 18
28 31 20 32 -8 0 3 7 25 15 21 7 43 11 48 8 6 -4 13 -1 17 5 7 11 57 22 99 22
19 -1 22 4 22 38 0 31 -4 40 -22 46 -26 8 -88 6 -103 -3 -10 -7 -16 -8 -48
-10 -11 -1 -15 -7 -11 -14 4 -7 3 -8 -5 -4 -16 10 -123 -42 -115 -56 4 -7 2
-8 -5 -4 -8 5 -33 -13 -68 -48 -58 -58 -77 -67 -47 -22 9 15 30 55 45 89 22
46 24 56 10 39 -11 -13 -22 -18 -26 -12 -10 16 -46 33 -43 19 2 -6 -6 -16 -17
-22 -11 -7 -33 -20 -50 -31 -21 -13 -16 -6 15 23 84 76 249 167 348 190 60 14
222 12 292 -4z m-420 -339 c0 -2 -8 -10 -17 -17 -16 -13 -17 -12 -4 4 13 16
21 21 21 13z m-373 -78 c-3 -8 -6 -5 -6 6 -1 11 2 17 5 13 3 -3 4 -12 1 -19z
m523 -6 c0 -5 -16 -27 -36 -51 -29 -33 -39 -39 -50 -30 -16 13 -19 49 -4 49 6
0 10 5 10 10 0 6 -8 10 -17 10 -10 0 -25 5 -33 10 -10 7 7 10 58 10 39 0 72
-4 72 -8z m1416 -167 c4 -80 -17 -263 -38 -320 -50 -138 -137 -283 -227 -377
-64 -68 -82 -75 -45 -17 39 63 55 116 61 212 4 62 10 87 19 87 23 0 138 233
161 325 16 66 32 167 33 210 l2 50 15 -45 c8 -25 16 -81 19 -125z m-1496 65
c0 -11 -110 -100 -123 -100 -5 0 -2 7 7 15 8 8 19 15 25 15 5 0 17 10 26 23 8
12 21 22 28 22 6 0 13 10 15 23 3 21 22 22 22 2z m-453 -42 c-3 -7 -5 -2 -5
12 0 14 2 19 5 13 2 -7 2 -19 0 -25z m293 -72 c0 -2 -7 -7 -16 -10 -8 -3 -12
-2 -9 4 6 10 25 14 25 6z m-132 -33 c-10 -2 -28 -2 -40 0 -13 2 -5 4 17 4 22
1 32 -1 23 -4z m1412 -519 c-33 -77 -111 -185 -185 -258 -64 -62 -145 -118
-145 -99 0 5 40 45 89 91 101 92 165 169 212 255 38 68 56 76 29 11z"/>
<path d="M5283 6350 c-12 -5 -33 -29 -47 -53 -24 -41 -26 -53 -26 -166 0 -67
-5 -131 -10 -141 -21 -40 -18 -79 11 -125 50 -79 150 -133 162 -87 3 12 5 11
6 -6 2 -45 45 -158 83 -218 21 -34 62 -84 92 -112 52 -50 156 -122 175 -122 5
0 27 10 50 22 l41 22 -33 15 -32 16 75 6 c79 7 117 21 169 65 37 31 40 58 9
78 -37 24 -129 57 -195 72 -113 24 -181 64 -224 132 -37 58 -37 72 0 72 17 0
33 5 36 10 10 17 35 11 35 -7 0 -25 55 -81 86 -89 14 -4 46 -4 71 -1 63 7 103
48 110 111 4 29 10 46 17 43 6 -2 35 -12 65 -23 29 -10 63 -28 76 -39 24 -22
86 -57 151 -85 l42 -18 5 23 c2 14 1 22 -3 20 -4 -3 -10 9 -14 26 -7 39 -59
114 -110 162 l-41 37 35 -4 c19 -3 55 -7 80 -11 25 -3 73 -21 107 -39 l63 -34
6 35 c10 52 -3 148 -25 191 -47 92 -149 152 -260 152 -77 0 -191 -42 -323
-118 -258 -148 -350 -164 -429 -74 l-32 36 6 108 c6 99 5 108 -13 118 -21 11
-18 11 -47 0z"/>
<path d="M5128 4333 c6 -2 18 -2 25 0 6 3 1 5 -13 5 -14 0 -19 -2 -12 -5z"/>
<path d="M0 960 l0 -960 5120 0 5120 0 0 960 0 960 -5120 0 -5120 0 0 -960z"/>
</g>
</svg>
